# xmcd CD database file
#
# Track frame offsets:
#	150
#	12890
#	28255
#	42847
#	58252
#	76508
#	97547
#	114183
#	131466
#	154446
#	171391
#	188297
#
# Disc length: 2732 seconds
#
# Revision: 0
# Processed by: cddbd v1.5.2PL0 Copyright (c) Steve Scherf et al.
# Submitted via: CDex 1.51
#
DISCID=850aaa0c
DTITLE=Dennis Marsh  - Walking Through My Mind
DYEAR=2007
DGENRE=Country
TTITLE0=I'm Gonna Change Everything
TTITLE1=She Goes Walking Through My mind
TTITLE2=Mexican Mama
TTITLE3=Room Full of Roses
TTITLE4=Christmas Dreamin'
TTITLE5=Baby Blue
TTITLE6=I Just Wanna Dance With You
TTITLE7=Old Man In Our Town
TTITLE8=Who Am I
TTITLE9=I Only See You
TTITLE10=Before I Say Goodbye
TTITLE11=Wine Into Water
EXTD=YEAR: 2007
EXTT0=
EXTT1=
EXTT2=
EXTT3=
EXTT4=
EXTT5=
EXTT6=
EXTT7=
EXTT8=
EXTT9=
EXTT10=
EXTT11=
PLAYORDER=
